<svg width="26" height="27" viewBox="0 0 26 27" fill="none" xmlns="http://www.w3.org/2000/svg">
<path d="M11.8876 21.3749V22.4998C11.8876 22.7982 11.7737 23.0844 11.5709 23.2953C11.3681 23.5063 11.093 23.6248 10.8062 23.6248H8.6434V24.7498C8.6434 25.3466 8.41553 25.9189 8.00992 26.3408C7.60432 26.7628 7.0542 26.9998 6.48059 26.9998H2.15499C1.58138 26.9998 1.03126 26.7628 0.625657 26.3408C0.220053 25.9189 -0.0078125 25.3466 -0.0078125 24.7498V21.8406C-0.00769 21.2439 0.220256 20.6717 0.625888 20.2499L8.99593 11.5424C8.48271 9.72947 8.53113 7.79444 9.13433 6.01172C9.73752 4.229 10.8649 2.68906 12.3565 1.61026C13.8482 0.531463 15.6285 -0.0314448 17.4449 0.00135624C19.2613 0.0341573 21.0217 0.661002 22.4765 1.79301C23.9313 2.92501 25.0066 4.50472 25.55 6.30815C26.0933 8.11158 26.0771 10.0472 25.5038 11.8405C24.9304 13.6339 23.8288 15.1939 22.3554 16.2994C20.8819 17.405 19.1113 17.9999 17.2946 17.9999H15.1296V20.2499C15.1296 20.5482 15.0157 20.8344 14.8129 21.0454C14.6101 21.2563 14.335 21.3749 14.0482 21.3749H11.8854H11.8876ZM19.4574 8.99994C20.031 8.99994 20.5811 8.76289 20.9867 8.34093C21.3923 7.91898 21.6202 7.34669 21.6202 6.74995C21.6202 6.15322 21.3923 5.58093 20.9867 5.15898C20.5811 4.73702 20.031 4.49997 19.4574 4.49997C18.8838 4.49997 18.3337 4.73702 17.9281 5.15898C17.5225 5.58093 17.2946 6.15322 17.2946 6.74995C17.2946 7.34669 17.5225 7.91898 17.9281 8.34093C18.3337 8.76289 18.8838 8.99994 19.4574 8.99994Z" fill="black"/>
</svg>
